<svg width="27" height="21" viewBox="0 0 27 21" fill="none" xmlns="http://www.w3.org/2000/svg">
<path d="M26.2895 0H7.81579C7.62735 0 7.44662 0.0737499 7.31337 0.205025C7.18012 0.336301 7.10526 0.514348 7.10526 0.7V5.6H0.710526C0.522083 5.6 0.341358 5.67375 0.208108 5.80502C0.0748589 5.9363 0 6.11435 0 6.3V16.8C0 17.9139 0.449153 18.9822 1.24865 19.7698C2.04815 20.5575 3.1325 21 4.26316 21H17.7632C17.9516 21 18.1323 20.9263 18.2656 20.795C18.3988 20.6637 18.4737 20.4857 18.4737 20.3C18.4737 20.1143 18.3988 19.9363 18.2656 19.805C18.1323 19.6737 17.9516 19.6 17.7632 19.6H4.26316C3.50938 19.6 2.78648 19.305 2.25349 18.7799C1.72049 18.2548 1.42105 17.5426 1.42105 16.8V7H18.4737V16.8C18.4737 17.9139 18.9228 18.9822 19.7223 19.7698C20.5218 20.5575 21.6062 21 22.7368 21C23.8675 21 24.9519 20.5575 25.7514 19.7698C26.5508 18.9822 27 17.9139 27 16.8V0.7C27 0.514348 26.9251 0.336301 26.7919 0.205025C26.6586 0.0737499 26.4779 0 26.2895 0ZM25.5789 16.8C25.5789 17.5426 25.2795 18.2548 24.7465 18.7799C24.2135 19.305 23.4906 19.6 22.7368 19.6C21.9831 19.6 21.2602 19.305 20.7272 18.7799C20.1942 18.2548 19.8947 17.5426 19.8947 16.8V6.3C19.8947 6.11435 19.8199 5.9363 19.6866 5.80502C19.5534 5.67375 19.3727 5.6 19.1842 5.6H8.52632V1.4H25.5789V16.8ZM3.55263 15.4H9.23684C9.42529 15.4 9.60601 15.3263 9.73926 15.195C9.87251 15.0637 9.94737 14.8857 9.94737 14.7V9.1C9.94737 8.91435 9.87251 8.7363 9.73926 8.60502C9.60601 8.47375 9.42529 8.4 9.23684 8.4H3.55263C3.36419 8.4 3.18346 8.47375 3.05021 8.60502C2.91696 8.7363 2.84211 8.91435 2.84211 9.1V14.7C2.84211 14.8857 2.91696 15.0637 3.05021 15.195C3.18346 15.3263 3.36419 15.4 3.55263 15.4ZM4.26316 9.8H8.52632V14H4.26316V9.8ZM17.0526 9.1C17.0526 9.28565 16.9778 9.4637 16.8445 9.59498C16.7113 9.72625 16.5305 9.8 16.3421 9.8H12.0789C11.8905 9.8 11.7098 9.72625 11.5765 9.59498C11.4433 9.4637 11.3684 9.28565 11.3684 9.1C11.3684 8.91435 11.4433 8.7363 11.5765 8.60502C11.7098 8.47375 11.8905 8.4 12.0789 8.4H16.3421C16.5305 8.4 16.7113 8.47375 16.8445 8.60502C16.9778 8.7363 17.0526 8.91435 17.0526 9.1ZM17.0526 11.9C17.0526 12.0857 16.9778 12.2637 16.8445 12.395C16.7113 12.5263 16.5305 12.6 16.3421 12.6H12.0789C11.8905 12.6 11.7098 12.5263 11.5765 12.395C11.4433 12.2637 11.3684 12.0857 11.3684 11.9C11.3684 11.7143 11.4433 11.5363 11.5765 11.405C11.7098 11.2737 11.8905 11.2 12.0789 11.2H16.3421C16.5305 11.2 16.7113 11.2737 16.8445 11.405C16.9778 11.5363 17.0526 11.7143 17.0526 11.9ZM17.0526 14.7C17.0526 14.8857 16.9778 15.0637 16.8445 15.195C16.7113 15.3263 16.5305 15.4 16.3421 15.4H12.0789C11.8905 15.4 11.7098 15.3263 11.5765 15.195C11.4433 15.0637 11.3684 14.8857 11.3684 14.7C11.3684 14.5143 11.4433 14.3363 11.5765 14.205C11.7098 14.0737 11.8905 14 12.0789 14H16.3421C16.5305 14 16.7113 14.0737 16.8445 14.205C16.9778 14.3363 17.0526 14.5143 17.0526 14.7ZM2.84211 17.5C2.84211 17.3143 2.91696 17.1363 3.05021 17.005C3.18346 16.8737 3.36419 16.8 3.55263 16.8H16.3421C16.5305 16.8 16.7113 16.8737 16.8445 17.005C16.9778 17.1363 17.0526 17.3143 17.0526 17.5C17.0526 17.6857 16.9778 17.8637 16.8445 17.995C16.7113 18.1263 16.5305 18.2 16.3421 18.2H3.55263C3.36419 18.2 3.18346 18.1263 3.05021 17.995C2.91696 17.8637 2.84211 17.6857 2.84211 17.5Z" fill="#DEC655"/>
</svg>
