<svg width="23" height="26" viewBox="0 0 23 26" fill="none" xmlns="http://www.w3.org/2000/svg">
<path d="M2.24191 0C1.97155 0.0264225 1.72951 0.235944 1.66713 0.497497C1.47282 1.31497 0.78887 2.62014 0.353342 3.9089C0.135579 4.55328 -0.0292663 5.21241 0.0043676 5.86842C0.0380015 6.52443 0.322096 7.19998 0.91786 7.65534C0.946843 7.67819 0.97778 7.69858 1.01024 7.71626C1.2211 7.82871 1.43421 7.91993 1.6466 7.98022V14.6194H0.661261C0.317322 14.6194 0.0044021 14.929 0.0043676 15.2692C0.00436727 18.1036 0.0043676 20.9474 0.0043676 23.7774C0.0347999 24.0968 0.336915 24.3676 0.661261 24.3662H1.6466V25.3409C1.6417 25.6842 1.95642 26 2.30349 26C2.65057 26 2.96529 25.6842 2.96039 25.3409V24.3662H20.0396V25.3409C20.0347 25.6842 20.3494 26 20.6965 26C21.0436 26 21.3583 25.6842 21.3534 25.3409V24.3662H22.3387C22.6827 24.3662 22.9956 24.0567 22.9956 23.7165V15.2692C22.9956 14.929 22.6827 14.6194 22.3387 14.6194H21.3534V7.98022C21.5658 7.91993 21.7789 7.82871 21.9898 7.71626C22.0222 7.69858 22.0532 7.67818 22.0821 7.65534C22.6779 7.19998 22.962 6.52443 22.9956 5.86842C23.0293 5.21241 22.8644 4.55328 22.6467 3.9089C22.2111 2.62014 21.5272 1.31497 21.3329 0.497497C21.2646 0.217285 20.9879 0.001001 20.6965 0C14.2647 0 7.75014 0 2.24191 0ZM2.75511 1.29958C8.58504 1.29958 14.415 1.29958 20.2449 1.29958C20.5664 2.29438 21.0762 3.35318 21.4047 4.32517C21.5966 4.89299 21.7016 5.4123 21.6818 5.79735C21.6632 6.16124 21.5654 6.37978 21.3123 6.58927C20.5571 6.96952 20.0148 6.84703 19.393 6.40652C18.7538 5.95367 18.1369 5.11732 17.6686 4.24394C17.5418 3.99311 17.237 3.84391 16.9584 3.89629C16.6799 3.94866 16.4517 4.19808 16.4267 4.47745C16.2372 6.21076 15.1363 6.85001 14.1481 6.82279C13.0033 6.79126 12.139 5.83931 12.1569 4.88358C12.1568 4.87334 12.1571 4.86337 12.1569 4.85313C12.1521 4.51597 11.8409 4.21246 11.5 4.21246C11.1591 4.21246 10.8479 4.51597 10.8431 4.85313C10.8429 4.86337 10.8432 4.87338 10.8431 4.88358C10.861 5.83931 9.9967 6.79127 8.8519 6.82279C7.86375 6.85002 6.76282 6.21076 6.5733 4.47745C6.54833 4.19808 6.32012 3.94866 6.04157 3.89629C5.76303 3.84391 5.45822 3.99311 5.33136 4.24394C4.86306 5.11732 4.24621 5.95367 3.60702 6.40652C2.98524 6.84703 2.44295 6.96952 1.68766 6.58927C1.43457 6.37978 1.33681 6.16124 1.31815 5.79735C1.29841 5.4123 1.40339 4.89299 1.59528 4.32517C1.92376 3.35318 2.43359 2.29438 2.75511 1.29958ZM5.6906 6.10193C6.35487 7.43637 7.64554 8.15674 8.89295 8.12237C9.99627 8.09198 10.9112 7.50986 11.5 6.71111C12.0888 7.50986 13.0037 8.092 14.107 8.12237C15.3545 8.15674 16.6451 7.43637 17.3094 6.10193C17.6901 6.61755 18.1097 7.09865 18.6232 7.46243C19.0372 7.75577 19.5235 7.95769 20.0396 8.04114V14.6194H2.96039V8.04114C3.47645 7.95769 3.96277 7.75577 4.37681 7.46243C4.8903 7.09865 5.30986 6.61755 5.6906 6.10193ZM1.31815 15.919H21.6818V17.5435H1.31815V15.919ZM1.31815 18.843H21.6818V23.0667H1.31815V18.843Z" fill="#221F20"/>
</svg>
