<svg width="11" height="9" viewBox="0 0 11 9" fill="none" xmlns="http://www.w3.org/2000/svg">
<path d="M10.2637 3.7168L6.97176 0.519178C6.66508 0.206504 6.15484 0.193322 5.8324 0.491409C5.50961 0.789427 5.49673 1.28498 5.80328 1.59815C5.8125 1.6075 5.82207 1.61657 5.83172 1.62592L7.77768 3.51284H1.30593C0.8609 3.51284 0.5 3.86326 0.5 4.29574C0.5 4.72752 0.8609 5.07822 1.30593 5.07822H7.75968L5.83172 6.9537C5.52518 7.26686 5.53807 7.76276 5.86085 8.06051C6.17207 8.34791 6.66064 8.34791 6.97176 8.06001L10.2637 4.86288C10.4153 4.71607 10.5003 4.51657 10.4997 4.3092C10.5001 4.30271 10.5001 4.29574 10.4997 4.29002C10.5001 4.28346 10.5001 4.27698 10.4997 4.27048C10.4995 4.06276 10.4148 3.86354 10.2637 3.7168Z" fill="#221F20"/>
</svg>
