<svg width="14" height="9" viewBox="0 0 14 9" fill="none" xmlns="http://www.w3.org/2000/svg">
<path d="M12.9593 3.8709L8.67982 0.273574C8.28115 -0.0781842 7.61784 -0.0930133 7.19866 0.242334C6.77904 0.577605 6.76229 1.13511 7.1608 1.48742C7.17279 1.49794 7.18523 1.50814 7.19778 1.51866L9.72753 3.64144H1.31424C0.735711 3.64144 0.266541 4.03567 0.266541 4.5222C0.266541 5.00796 0.735711 5.4025 1.31424 5.4025H9.70413L7.19778 7.51241C6.79927 7.86472 6.81603 8.42261 7.23564 8.75757C7.64023 9.0809 8.27537 9.0809 8.67982 8.75702L12.9593 5.16024C13.1565 4.99508 13.2669 4.77064 13.2661 4.53735C13.2667 4.53005 13.2667 4.5222 13.2661 4.51577C13.2667 4.50839 13.2667 4.5011 13.2661 4.49379C13.2659 4.2601 13.1557 4.03598 12.9593 3.8709Z" fill="#221F20"/>
</svg>
