<svg width="245" height="179" viewBox="0 0 245 179" fill="none" xmlns="http://www.w3.org/2000/svg">
<path d="M26.3937 154.836C9.47117 137.819 0 117.064 0 89.498C0 61.9323 9.47117 40.8242 26.3937 23.8182C50.7562 -0.680839 80.8783 0.00190292 122.497 0.00190292C164.116 0.00190292 194.244 -0.680839 218.606 23.8182C235.529 40.8356 245 61.938 245 89.498C245 117.058 235.512 137.819 218.606 154.836C194.244 179.335 164.122 179 122.497 179C80.8727 179 50.7562 179.335 26.3937 154.836Z" fill="#221F20"/>
<path d="M5 89.5032C5 63.9343 12.8627 43.6497 29.0323 27.5072C51.6128 4.97252 82.0561 4.98388 120.601 5.00092H126.801C164.828 5.00092 192.305 5.00093 214.892 27.5072C231.784 44.3713 240 64.6503 240 89.5032C240 114.14 231.784 134.311 214.892 151.175C192.009 174.011 164.031 174.006 125.298 174H122.104C82.8873 174 51.9089 174 29.0323 151.175C12.635 134.811 5 115.214 5 89.5032ZM238.673 89.5032C238.673 65.0196 230.589 45.0475 213.952 28.4447C191.747 6.28505 164.515 6.28505 126.801 6.32483H120.601C82.3635 6.32483 52.1651 6.32482 29.9661 28.4447C14.0584 44.3031 6.32659 64.2923 6.32659 89.5032C6.32659 114.845 13.8363 134.146 29.9661 150.238C52.4555 172.687 83.1948 172.687 122.104 172.682H125.298C163.713 172.682 191.463 172.682 213.952 150.238C230.589 133.641 238.673 113.771 238.673 89.5032Z" fill="#D1C26E"/>
<path d="M122.939 46.4022H119.505V56.1481H118.99C118.757 55.9052 118.497 55.6897 118.214 55.5058C117.919 55.3738 117.596 55.3149 117.273 55.3341C116.725 55.3429 116.187 55.4834 115.705 55.7439C115.152 56.0152 114.559 56.2976 113.855 56.6631C113.062 57.0449 112.235 57.3544 111.385 57.5878C110.265 57.8823 109.109 58.0202 107.951 57.9976C106.098 58.0311 104.257 57.6882 102.54 56.9898C100.831 56.2253 99.2847 55.1386 97.9869 53.7892C96.5232 52.3112 95.3175 50.5986 94.4199 48.7224C93.4502 46.6688 92.9651 44.4201 93.0019 42.1495C92.9826 40.6636 93.169 39.1821 93.5558 37.7472C93.8793 36.5639 94.3325 35.42 94.9073 34.3362C95.3765 33.466 95.9333 32.6459 96.5689 31.8887C97.1265 31.2315 97.5917 30.7166 97.9647 30.3437C99.2525 29.0545 100.751 27.9945 102.396 27.2095C104.168 26.381 106.106 25.9681 108.062 26.0024C108.964 25.9841 109.866 26.0715 110.748 26.2626C111.372 26.4086 111.983 26.603 112.576 26.8441L113.972 27.3978C114.415 27.5758 114.89 27.6642 115.368 27.6581C115.79 27.6915 116.213 27.6092 116.592 27.42C116.862 27.2382 117.102 27.0138 117.301 26.7555H117.943V35.3662H117.472C117.32 34.4764 117.096 33.6005 116.802 32.747C116.454 31.7063 115.932 30.7326 115.257 29.8675C114.509 28.9075 113.565 28.1183 112.487 27.5528C111.112 26.8742 109.589 26.5487 108.056 26.606C105.907 26.606 104.181 27.0563 102.878 27.9571C101.572 28.8648 100.521 30.0927 99.8257 31.5232C99.0707 33.0936 98.5786 34.7772 98.369 36.5069C98.1253 38.3723 98.0031 40.2516 98.0035 42.1329C98.0035 43.4249 98.0607 44.717 98.1752 46.0091C98.2788 47.2381 98.4732 48.4579 98.7567 49.6582C99.01 50.7584 99.3911 51.8251 99.8922 52.8367C100.357 53.7802 100.998 54.6261 101.781 55.3286C102.546 56.0468 103.454 56.5958 104.445 56.94C105.604 57.2714 106.807 57.4226 108.012 57.3885C108.919 57.3853 109.819 57.2338 110.676 56.94C111.549 56.646 112.358 56.1874 113.058 55.5888C113.786 54.9523 114.371 54.1692 114.775 53.2908C115.239 52.2578 115.467 51.1338 115.44 50.0016V46.3967H109.901V45.7765H123L122.939 46.4022Z" fill="#D1C26E"/>
<path d="M118 77.1107H122.862V46.7013H118V46.0816H126.149C126.556 46.0816 126.968 46.0816 127.375 46.0816C127.781 46.0816 128.193 46.0414 128.6 46.0128C129.007 45.9841 129.419 46.0128 129.826 46.0128C130.232 46.0128 130.644 46.0128 131.051 46.0128C131.932 46.0128 132.711 46.0128 133.395 46.0587C134.078 46.1046 134.722 46.1447 135.326 46.2136C135.896 46.284 136.462 46.3894 137.02 46.5291C137.585 46.6611 138.15 46.8332 138.748 47.0398C140.407 47.5684 141.968 48.3731 143.368 49.4209C144.626 50.3678 145.71 51.5333 146.57 52.8635C147.404 54.1768 148.024 55.6183 148.405 57.1323C148.806 58.718 149.005 60.3492 148.998 61.9863C149.023 63.7676 148.787 65.5427 148.298 67.2534C147.868 68.7262 147.219 70.1234 146.372 71.396C145.574 72.574 144.607 73.6241 143.503 74.5115C142.426 75.3742 141.239 76.0845 139.974 76.623C139.332 76.9283 138.667 77.1815 137.986 77.3803C137.352 77.5582 136.706 77.6924 136.055 77.782C135.399 77.868 134.677 77.9254 133.886 77.9598C133.095 77.9943 132.192 78 131.175 78C130.735 78 130.266 78 129.775 78C129.283 78 128.781 77.9656 128.284 77.9369L126.815 77.868C126.335 77.868 125.872 77.868 125.438 77.868H118V77.1107ZM127.245 77.1107C127.742 77.168 128.318 77.214 128.973 77.2426C129.628 77.2713 130.351 77.2885 131.141 77.2885C132.128 77.2889 133.114 77.2372 134.095 77.1336C135.061 77.0367 136.01 76.811 136.919 76.4623C137.824 76.1148 138.667 75.6186 139.415 74.9935C140.248 74.2867 140.951 73.4359 141.493 72.4804C142.399 70.9587 143.057 69.2982 143.441 67.5633C143.826 65.7594 144.016 63.9181 144.006 62.0724C144.013 59.9337 143.782 57.801 143.317 55.7151C142.942 53.9465 142.203 52.2785 141.148 50.8209C140.104 49.4375 138.722 48.3556 137.139 47.6824C135.181 46.8731 133.08 46.4824 130.966 46.5349C130.238 46.5349 129.571 46.5349 128.973 46.5808L127.245 46.6668V77.1107Z" fill="#D1C26E"/>
<path d="M53.9597 99.6449H61V109.881C61 112.489 60.3685 114.496 59.1056 115.905C57.8427 117.313 55.9741 118.011 53.5 118C51.0351 118 49.1628 117.301 47.8999 115.905C46.637 114.508 46 112.496 46 109.881V93.1187C46 90.5112 46.6333 88.5034 47.8999 87.0953C49.1628 85.6984 51.0351 85 53.5 85C55.9649 85 57.8371 85.6984 59.1056 87.0953C60.3741 88.4922 61 90.5037 61 93.1187V96.2533H56.2474V92.7946C56.2474 91.6268 56.0092 90.7998 55.5384 90.3249C55.0108 89.8641 54.3363 89.6105 53.6385 89.6105C52.9406 89.6105 52.2661 89.8641 51.7386 90.3249C51.2677 90.7998 51.0351 91.6268 51.0351 92.7946V110.228C51.0351 111.395 51.2677 112.211 51.7386 112.675C52.272 113.123 52.9443 113.368 53.6385 113.368C54.3327 113.368 55.0049 113.123 55.5384 112.675C56.0092 112.211 56.2474 111.395 56.2474 110.228V104.255H53.9597V99.6449Z" fill="white"/>
<path d="M72.9402 110.228C72.9402 111.396 73.1741 112.222 73.6366 112.697C74.1534 113.159 74.8152 113.413 75.5 113.413C76.1848 113.413 76.8466 113.159 77.3634 112.697C77.8259 112.222 78.0598 111.396 78.0598 110.228V92.7947C78.0598 91.6269 77.8259 90.8 77.3634 90.325C76.8466 89.8636 76.1848 89.6094 75.5 89.6094C74.8152 89.6094 74.1534 89.8636 73.6366 90.325C73.1741 90.8 72.9402 91.6269 72.9402 92.7947V110.228ZM68 93.1188C68 90.5113 68.6438 88.5035 69.9314 87.0954C71.2191 85.6874 73.0762 84.989 75.5027 85.0001C77.9238 85.0001 79.7845 85.6986 81.0686 87.0954C82.3526 88.4923 83 90.5038 83 93.1188V109.881C83 112.489 82.3562 114.497 81.0686 115.905C79.7845 117.302 77.9238 118 75.5027 118C73.0816 118 71.2209 117.302 69.9314 115.905C68.642 114.508 68 112.496 68 109.881V93.1188Z" fill="white"/>
<path d="M95.3648 85V110.129C95.3648 111.313 95.6189 112.131 96.1211 112.599C96.6892 113.05 97.4053 113.298 98.1448 113.298C98.8842 113.298 99.6003 113.05 100.168 112.599C100.677 112.131 100.925 111.313 100.925 110.129V85H106V109.808C106 112.441 105.326 114.471 103.973 115.88C102.62 117.29 100.635 118 98 118C95.3648 118 93.3737 117.29 92.0266 115.88C90.6795 114.471 90 112.441 90 109.808V85H95.3648Z" fill="white"/>
<path d="M118.124 89.711V99.8469H120.136C120.959 99.8971 121.771 99.6273 122.403 99.0931C122.954 98.5906 123.228 97.6788 123.225 96.3578V93.1087C123.301 92.1985 123.08 91.288 122.595 90.5162C122.349 90.2353 122.041 90.0162 121.695 89.8765C121.35 89.7367 120.977 89.68 120.606 89.711H118.124ZM123.74 117.994C123.678 117.777 123.616 117.572 123.553 117.383C123.48 117.152 123.425 116.915 123.389 116.675C123.336 116.316 123.303 115.953 123.293 115.59C123.293 115.151 123.293 114.602 123.293 113.94V108.755C123.293 107.232 123.028 106.149 122.499 105.506C121.97 104.862 121.112 104.548 119.926 104.564H118.146V117.994H113V85H120.765C123.451 85 125.393 85.6281 126.591 86.8844C127.789 88.1407 128.39 90.0441 128.394 92.5947V95.1872C128.394 98.5792 127.271 100.81 125.027 101.88C125.631 102.102 126.183 102.45 126.645 102.9C127.108 103.351 127.472 103.894 127.713 104.495C128.231 105.905 128.477 107.401 128.439 108.903V113.997C128.435 114.712 128.467 115.427 128.535 116.138C128.603 116.778 128.76 117.404 129 118L123.74 117.994Z" fill="white"/>
<path d="M146.638 108.428L150.046 85H157V118H152.27V94.3323L148.818 118H144.088L140.361 94.6636V118H136V85H142.954L146.638 108.428Z" fill="white"/>
<path d="M170.132 98.9071H177.18V103.619H170.132V113.288H179V118H165V85H179V89.7118H170.132V98.9071Z" fill="white"/>
<path d="M185 85H201V89.7118H195.585V118H190.409V89.7118H185V85Z" fill="white"/>
<path d="M62 133C62 133.396 61.8827 133.782 61.6629 134.111C61.4432 134.44 61.1308 134.696 60.7654 134.848C60.3999 134.999 59.9978 135.039 59.6098 134.962C59.2219 134.884 58.8655 134.694 58.5858 134.414C58.3061 134.135 58.1156 133.778 58.0384 133.39C57.9613 133.002 58.0009 132.6 58.1522 132.235C58.3036 131.869 58.56 131.557 58.8889 131.337C59.2178 131.117 59.6044 131 60 131C60.5304 131 61.0391 131.211 61.4142 131.586C61.7893 131.961 62 132.47 62 133Z" fill="#D1C26E"/>
<path d="M190 133C190 133.396 189.853 133.782 189.579 134.111C189.304 134.44 188.914 134.696 188.457 134.848C188 134.999 187.497 135.039 187.012 134.962C186.527 134.884 186.082 134.694 185.732 134.414C185.383 134.135 185.145 133.778 185.048 133.39C184.952 133.002 185.001 132.6 185.19 132.235C185.38 131.869 185.7 131.557 186.111 131.337C186.522 131.117 187.006 131 187.5 131C188.163 131 188.799 131.211 189.268 131.586C189.737 131.961 190 132.47 190 133Z" fill="#D1C26E"/>
<path d="M75.492 124C77.9342 124 79 125.722 79 128.226V136.774C79 139.278 77.9288 141 75.492 141H72V124H75.492ZM75.4652 139.978C77.2326 139.978 77.961 138.692 77.961 136.82V128.18C77.961 126.308 77.2112 125.022 75.4652 125.022H73.0444V139.978H75.4652Z" fill="white"/>
<path d="M86 124V141H85V124H86Z" fill="white"/>
<path d="M98.9749 128.178V128.54H97.8097V128.105C97.8097 126.338 97.0642 125 95.0533 125C93.0423 125 92.2968 126.315 92.2968 128.082C92.2968 132.142 99 132.215 99 136.822C99 139.233 97.8348 141 95.0031 141C92.1715 141 91 139.233 91 136.822V135.964H92.1652V136.895C92.1652 138.685 92.9358 139.972 94.9718 139.972C97.0078 139.972 97.7847 138.685 97.7847 136.895C97.7847 132.881 91.0814 132.813 91.0814 128.156C91.0814 125.649 92.2968 124.023 95.0282 124C97.7596 123.978 98.9749 125.767 98.9749 128.178Z" fill="white"/>
<path d="M111 128.227V129.61H109.98V128.154C109.98 126.365 109.312 124.999 107.525 124.999C105.738 124.999 105.069 126.365 105.069 128.154V136.846C105.069 138.641 105.738 139.973 107.525 139.973C109.312 139.973 109.98 138.641 109.98 136.846V134.865H111V136.778C111 139.188 109.98 141 107.503 141C105.025 141 104 139.188 104 136.778V128.227C104 125.812 105.02 124 107.503 124C109.986 124 111 125.812 111 128.227Z" fill="white"/>
<path d="M116 128.229C116 125.79 117.228 124 119.972 124C122.717 124 124 125.79 124 128.229V136.777C124 139.21 122.772 141 119.972 141C117.173 141 116 139.21 116 136.777V128.229ZM117.197 136.85C117.197 138.668 117.977 140.006 119.972 140.006C121.968 140.006 122.803 138.668 122.803 136.85V128.155C122.803 126.337 121.998 124.999 119.972 124.999C117.946 124.999 117.197 126.337 117.197 128.155V136.85Z" fill="white"/>
<path d="M130.153 124L133.56 139.714L136.967 124H138L134.332 141H132.702L129 124H130.153Z" fill="white"/>
<path d="M149.01 131.863V132.896H144.164V139.979H150V141H143V124H150V125.021H144.164V131.863H149.01Z" fill="white"/>
<path d="M158.718 124C161.462 124 162.564 125.435 162.564 127.841V129.322C162.564 131.309 161.74 132.451 159.972 132.842C161.819 133.232 162.564 134.466 162.564 136.315V138.962C162.505 139.667 162.656 140.373 163 141H161.789C161.472 140.365 161.338 139.662 161.401 138.962V136.286C161.401 134.03 160.093 133.416 158.046 133.416H156.175V141H155V124H158.718ZM158.028 132.377C160.129 132.377 161.359 131.802 161.359 129.54V127.933C161.359 126.113 160.62 125.022 158.67 125.022H156.132V132.377H158.028Z" fill="white"/>
<path d="M171.486 134.466L168 124H169.05L172.026 132.939L175.003 124H176L172.493 134.466V141H171.486V134.466Z" fill="white"/>
</svg>
